<svg width="48" height="48" viewBox="0 0 48 48" fill="none" xmlns="http://www.w3.org/2000/svg">
<path fill-rule="evenodd" clip-rule="evenodd" d="M9 11.2687C7.34315 11.2687 6 12.6118 6 14.2687V33.7313C6 35.3882 7.34314 36.7313 9 36.7313H39C40.6569 36.7313 42 35.3882 42 33.7313V14.2687C42 12.6118 40.6569 11.2687 39 11.2687H9ZM10.9915 14.7645C9.88689 14.7645 8.99146 15.6599 8.99146 16.7645V29.7645C8.99146 30.869 9.88688 31.7645 10.9915 31.7645H29.9915C31.096 31.7645 31.9915 30.869 31.9915 29.7645V16.7645C31.9915 15.6599 31.096 14.7645 29.9915 14.7645H10.9915ZM39.6762 17.5748C39.6762 18.9369 38.572 20.041 37.2099 20.041C35.8478 20.041 34.7437 18.9369 34.7437 17.5748C34.7437 16.2127 35.8478 15.1085 37.2099 15.1085C38.572 15.1085 39.6762 16.2127 39.6762 17.5748ZM37.2099 26.7687C38.572 26.7687 39.6762 25.6645 39.6762 24.3024C39.6762 22.9404 38.572 21.8362 37.2099 21.8362C35.8478 21.8362 34.7437 22.9404 34.7437 24.3024C34.7437 25.6645 35.8478 26.7687 37.2099 26.7687Z" fill="white"/>
<rect x="11.0391" y="17.0231" width="1.02692" height="5.58112" fill="white"/>
<rect x="11.0757" y="23.8643" width="0.990372" height="1.88092" fill="white"/>
</svg>
